<?xml version="1.0" encoding="utf-8"?>

<svg version="1.1" id="Layer_2_1_" xmlns="http://www.w3.org/2000/svg" xmlns:xlink="http://www.w3.org/1999/xlink" x="0px" y="0px"
	 viewBox="0 0 38.3 25" style="enable-background:new 0 0 38.3 25;" xml:space="preserve">

	<style type="text/css">
		.sea {
			fill-rule:evenodd;
			clip-rule:evenodd;
			fill:#1E3A8A;
		}
		.sail {
			fill-rule:evenodd;
			clip-rule:evenodd;
			fill:#F59E0B;
		}
	</style>

	<path class="sea" d="M12.8,9.7C6,9.7,1.7,13.1,0,19.9c2.6-3.4,5.5-4.7,8.9-3.8c1.9,0.5,3.3,1.9,4.9,3.4C16.3,22,19.2,25,25.5,25
		c6.8,0,11.1-3.4,12.8-10.1c-2.6,3.4-5.5,4.7-8.9,3.8c-1.9-0.5-3.3-1.9-4.9-3.4C22,12.7,19.1,9.7,12.8,9.7z"/>
	<path class="sail" d="M29.6,8.9c-0.5,1.9-1.9,3.3-3.4,4.9l-0.1,0.1c1.3,1.4,2.4,2.4,3.8,2.8c0.5,0.1,1,0.2,1.5,0.2
		c1.6,0,3.1-0.8,4.5-2.3C36,14,36,13.4,36,12.8C35.9,6,32.6,1.7,25.8,0C29.2,2.6,30.4,5.5,29.6,8.9z"/>

</svg>
